<svg width="120" height="120" viewBox="0 0 120 120" fill="none" xmlns="http://www.w3.org/2000/svg">
  <defs>
    <linearGradient id="gold" x1="20" y1="10" x2="100" y2="110" gradientUnits="userSpaceOnUse">
      <stop stop-color="#FFDB9C"/>
      <stop offset="0.5" stop-color="#F2B74B"/>
      <stop offset="1" stop-color="#FBEAD2"/>
    </linearGradient>
    <linearGradient id="bg" x1="30" y1="24" x2="92" y2="98" gradientUnits="userSpaceOnUse">
      <stop stop-color="#1A1714"/>
      <stop offset="1" stop-color="#0B0A08"/>
    </linearGradient>
  </defs>
  <rect x="6" y="6" width="108" height="108" rx="22" fill="url(#bg)" stroke="url(#gold)" stroke-width="4"/>
  <path d="M32 88V34h12l16 22 16-22h12v54" stroke="url(#gold)" stroke-width="8" stroke-linecap="round" stroke-linejoin="round"/>
  <path d="M48 63.5 56.5 70c1.3 1.04 3.15 1.04 4.45 0l8.55-6.5" stroke="url(#gold)" stroke-width="7" stroke-linecap="round" stroke-linejoin="round"/>
  <path d="M49.5 62V54c0-1.66 1.34-3 3-3h5.5c.8 0 1.57.32 2.14.88l2.36 2.35c.56.56 1.33.88 2.12.88H70c1.66 0 3 1.34 3 3v6" stroke="url(#gold)" stroke-width="6" stroke-linecap="round" stroke-linejoin="round"/>
  <path d="M49.5 63.8c-1.5-.5-3.4.14-4.5 1.48-1.1 1.34-.96 3.04.32 3.83l4 2.52c1.16.73 2.87.46 3.83-.62.92-1.04.98-2.46.14-3.44" stroke="url(#gold)" stroke-width="5" stroke-linecap="round" stroke-linejoin="round"/>
  <path d="M70.5 63.8c1.5-.5 3.4.14 4.5 1.48 1.1 1.34.96 3.04-.32 3.83l-4 2.52c-1.16.73-2.87.46-3.83-.62-.92-1.04-.98-2.46-.14-3.44" stroke="url(#gold)" stroke-width="5" stroke-linecap="round" stroke-linejoin="round"/>
  <path d="M52 69.5l-2.6 2.1" stroke="url(#gold)" stroke-width="4" stroke-linecap="round"/>
  <path d="M54.5 71.5 52 74" stroke="url(#gold)" stroke-width="4" stroke-linecap="round"/>
  <path d="M57 72.5 54.5 75" stroke="url(#gold)" stroke-width="4" stroke-linecap="round"/>
  <path d="M68 69.5l2.6 2.1" stroke="url(#gold)" stroke-width="4" stroke-linecap="round"/>
  <path d="M65.5 71.5 68 74" stroke="url(#gold)" stroke-width="4" stroke-linecap="round"/>
  <path d="M63 72.5 65.5 75" stroke="url(#gold)" stroke-width="4" stroke-linecap="round"/>
</svg>
